# Blender 4.1.0
# www.blender.org
mtllib circle.mtl
o Cube
v 0.671875 0.000000 -0.671875
v 0.671875 0.000000 0.671875
v -0.671875 0.000000 -0.671875
v -0.671875 0.000000 0.671875
v 0.527344 0.000000 0.776042
v 0.364583 0.000000 0.854167
v 0.186198 0.000000 0.901042
v 0.000000 0.000000 0.916667
v -0.186198 0.000000 0.901042
v -0.364583 0.000000 0.854167
v -0.527344 0.000000 0.776042
v 0.776042 0.000000 -0.527344
v 0.854167 0.000000 -0.364583
v 0.901042 0.000000 -0.186198
v 0.916667 0.000000 0.000000
v 0.901042 0.000000 0.186198
v 0.854167 0.000000 0.364583
v 0.776042 0.000000 0.527344
v -0.776042 0.000000 0.527344
v -0.854167 0.000000 0.364583
v -0.901042 0.000000 0.186198
v -0.916667 0.000000 0.000000
v -0.901042 0.000000 -0.186198
v -0.854167 0.000000 -0.364583
v -0.776042 0.000000 -0.527344
v -0.527344 0.000000 -0.776042
v -0.364583 0.000000 -0.854167
v -0.186198 0.000000 -0.901042
v 0.000000 0.000000 -0.916667
v 0.186198 0.000000 -0.901042
v 0.364583 0.000000 -0.854167
v 0.527344 0.000000 -0.776042
vn -0.0000 1.0000 -0.0000
vt 0.750000 0.500000
vt 0.781250 0.500000
vt 0.812500 0.500000
vt 0.843750 0.500000
vt 0.875000 0.500000
vt 0.875000 0.531250
vt 0.875000 0.562500
vt 0.875000 0.593750
vt 0.875000 0.625000
vt 0.875000 0.656250
vt 0.875000 0.687500
vt 0.875000 0.718750
vt 0.875000 0.750000
vt 0.843750 0.750000
vt 0.812500 0.750000
vt 0.781250 0.750000
vt 0.750000 0.750000
vt 0.718750 0.750000
vt 0.687500 0.750000
vt 0.656250 0.750000
vt 0.625000 0.750000
vt 0.625000 0.718750
vt 0.625000 0.687500
vt 0.625000 0.656250
vt 0.625000 0.625000
vt 0.625000 0.593750
vt 0.625000 0.562500
vt 0.625000 0.531250
vt 0.625000 0.500000
vt 0.656250 0.500000
vt 0.687500 0.500000
vt 0.718750 0.500000
s 0
usemtl Material
f 29/1/1 28/2/1 27/3/1 26/4/1 3/5/1 25/6/1 24/7/1 23/8/1 22/9/1 21/10/1 20/11/1 19/12/1 4/13/1 11/14/1 10/15/1 9/16/1 8/17/1 7/18/1 6/19/1 5/20/1 2/21/1 18/22/1 17/23/1 16/24/1 15/25/1 14/26/1 13/27/1 12/28/1 1/29/1 32/30/1 31/31/1 30/32/1
