# Blender 4.1.0
# www.blender.org
mtllib cuadro-gatos.mtl
o Cube
v 2.000000 3.000000 -0.100000
v 2.000000 -3.000000 -0.100000
v 2.000000 3.000000 0.100000
v 2.000000 -3.000000 0.100000
v -2.000000 3.000000 -0.100000
v -2.000000 -3.000000 -0.100000
v -2.000000 3.000000 0.100000
v -2.000000 -3.000000 0.100000
vn -0.0000 1.0000 -0.0000
vn -0.0000 -0.0000 1.0000
vn -1.0000 -0.0000 -0.0000
vn -0.0000 -1.0000 -0.0000
vn 1.0000 -0.0000 -0.0000
vn -0.0000 -0.0000 -1.0000
vt 0.625000 0.500000
vt 0.875000 0.500000
vt 0.875000 0.750000
vt 0.625000 0.750000
vt 0.858972 0.092241
vt 0.951714 0.978714
vt 0.104738 0.835477
vt 0.060383 0.049801
vt 0.375000 0.000000
vt 0.625000 0.000000
vt 0.625000 0.250000
vt 0.375000 0.250000
vt 0.125000 0.500000
vt 0.375000 0.500000
vt 0.375000 0.750000
vt 0.125000 0.750000
s 0
usemtl Material
f 4/5/2 3/6/2 7/7/2 8/8/2
usemtl Material.001
f 1/1/1 5/2/1 7/3/1 3/4/1
f 8/9/3 7/10/3 5/11/3 6/12/3
f 6/13/4 2/14/4 4/15/4 8/16/4
f 2/14/5 1/1/5 3/4/5 4/15/5
f 6/12/6 5/11/6 1/1/6 2/14/6
