{"asset":{"version":"2.0","generator":"Blockbench 3.8.4 glTF exporter"},"scenes":[{"nodes":[1,3,5,7,9,11,13,15,17,19],"name":"blockbench_export"}],"scene":0,"nodes":[{"translation":[0,-0.75,0],"name":"c212023a-bb1b-0c18-bd40-89095f1509df","mesh":0},{"translation":[0,0.75,0],"name":"base","children":[0]},{"translation":[0,-1.5,0],"name":"238dac46-f2bc-615c-2c02-f21334f0d10a","mesh":1},{"translation":[0,1.5,0],"name":"waist","children":[2]},{"translation":[0,-1.5,0],"name":"063a35b2-4cff-ea3f-9393-c52555f086ea","mesh":2},{"translation":[0,1.5,0],"name":"left","children":[4]},{"translation":[0,-1.5,0],"name":"4026d6f3-7447-aac6-9d0b-abafc8acee4d","mesh":3},{"translation":[0,1.5,0],"name":"right","children":[6]},{"translation":[0.115625,-0.75,0],"name":"49c58fb6-8069-640d-3844-51a8fc0e65e9","mesh":4},{"translation":[-0.115625,0.75,0],"name":"right_leg","children":[8]},{"translation":[-0.115625,-0.75,0],"name":"8ba7d5fd-52a5-9b2a-5f7c-8474205ab9ea","mesh":5},{"translation":[0.115625,0.75,0],"name":"left_leg","children":[10]},{"translation":[-0.375,-1.5,0],"name":"45d068b8-8ba4-87fd-5b00-ebfbe2e85395","mesh":6},{"translation":[0.375,1.5,0],"name":"right_arm","children":[12]},{"translation":[0.375,-1.4375,0],"name":"cbfb3cf5-24c9-7449-bc9d-385a857b95e6","mesh":7},{"translation":[-0.375,1.4375,0],"name":"left_arm","children":[14]},{"translation":[0,-1.5,0],"name":"9d0f0406-2760-9c56-88c6-63d00caf0f83","mesh":8},{"translation":[0,1.5,0],"name":"body","children":[16]},{"translation":[0,-1.4375,0],"name":"6f9c2938-8510-094a-edad-7af9450eff4d","mesh":9},{"translation":[0,1.4375,0],"name":"head","children":[18]}],"bufferViews":[{"buffer":0,"byteOffset":0,"byteLength":432,"target":34962,"byteStride":12},{"buffer":0,"byteOffset":432,"byteLength":432,"target":34962,"byteStride":12},{"buffer":0,"byteOffset":864,"byteLength":288,"target":34962,"byteStride":8},{"buffer":0,"byteOffset":1152,"byteLength":432,"target":34962,"byteStride":12},{"buffer":0,"byteOffset":1584,"byteLength":432,"target":34962,"byteStride":12},{"buffer":0,"byteOffset":2016,"byteLength":288,"target":34962,"byteStride":8},{"buffer":0,"byteOffset":2304,"byteLength":432,"target":34962,"byteStride":12},{"buffer":0,"byteOffset":2736,"byteLength":432,"target":34962,"byteStride":12},{"buffer":0,"byteOffset":3168,"byteLength":288,"target":34962,"byteStride":8},{"buffer":0,"byteOffset":3456,"byteLength":432,"target":34962,"byteStride":12},{"buffer":0,"byteOffset":3888,"byteLength":432,"target":34962,"byteStride":12},{"buffer":0,"byteOffset":4320,"byteLength":288,"target":34962,"byteStride":8},{"buffer":0,"byteOffset":4608,"byteLength":432,"target":34962,"byteStride":12},{"buffer":0,"byteOffset":5040,"byteLength":432,"target":34962,"byteStride":12},{"buffer":0,"byteOffset":5472,"byteLength":288,"target":34962,"byteStride":8},{"buffer":0,"byteOffset":5760,"byteLength":432,"target":34962,"byteStride":12},{"buffer":0,"byteOffset":6192,"byteLength":432,"target":34962,"byteStride":12},{"buffer":0,"byteOffset":6624,"byteLength":288,"target":34962,"byteStride":8},{"buffer":0,"byteOffset":6912,"byteLength":432,"target":34962,"byteStride":12},{"buffer":0,"byteOffset":7344,"byteLength":432,"target":34962,"byteStride":12},{"buffer":0,"byteOffset":7776,"byteLength":288,"target":34962,"byteStride":8},{"buffer":0,"byteOffset":8064,"byteLength":432,"target":34962,"byteStride":12},{"buffer":0,"byteOffset":8496,"byteLength":432,"target":34962,"byteStride":12},{"buffer":0,"byteOffset":8928,"byteLength":288,"target":34962,"byteStride":8},{"buffer":0,"byteOffset":9216,"byteLength":432,"target":34962,"byteStride":12},{"buffer":0,"byteOffset":9648,"byteLength":432,"target":34962,"byteStride":12},{"buffer":0,"byteOffset":10080,"byteLength":288,"target":34962,"byteStride":8},{"buffer":0,"byteOffset":10368,"byteLength":432,"target":34962,"byteStride":12},{"buffer":0,"byteOffset":10800,"byteLength":432,"target":34962,"byteStride":12},{"buffer":0,"byteOffset":11232,"byteLength":288,"target":34962,"byteStride":8},{"buffer":0,"byteOffset":11520,"byteLength":12},{"buffer":0,"byteOffset":11532,"byteLength":48},{"buffer":0,"byteOffset":11580,"byteLength":4},{"buffer":0,"byteOffset":11584,"byteLength":12},{"buffer":0,"byteOffset":11596,"byteLength":4},{"buffer":0,"byteOffset":11600,"byteLength":12},{"buffer":0,"byteOffset":11612,"byteLength":12},{"buffer":0,"byteOffset":11624,"byteLength":48},{"buffer":0,"byteOffset":11672,"byteLength":4},{"buffer":0,"byteOffset":11676,"byteLength":12},{"buffer":0,"byteOffset":11688,"byteLength":4},{"buffer":0,"byteOffset":11692,"byteLength":12},{"buffer":0,"byteOffset":11704,"byteLength":28},{"buffer":0,"byteOffset":11732,"byteLength":112},{"buffer":0,"byteOffset":11844,"byteLength":4},{"buffer":0,"byteOffset":11848,"byteLength":16}],"buffers":[{"byteLength":11864,"uri":"data:application/octet-stream;base64,"}],"accessors":[{"bufferView":0,"componentType":5126,"count":36,"max":[0.375,0.0625,0.375],"min":[-0.375,0,-0.375],"type":"VEC3"},{"bufferView":1,"componentType":5126,"count":36,"max":[1,1,1],"min":[-1,-1,-1],"type":"VEC3"},{"bufferView":2,"componentType":5126,"count":36,"max":[0.749755859375,0.499755859375],"min":[0.000244140625,0.297119140625],"type":"VEC2"},{"bufferView":3,"componentType":5126,"count":36,"max":[0.25,0.875,0.0625],"min":[-0.25,0.75,-0.0625],"type":"VEC3"},{"bufferView":4,"componentType":5126,"count":36,"max":[1,1,1],"min":[-1,-1,-1],"type":"VEC3"},{"bufferView":5,"componentType":5126,"count":36,"max":[0.312255859375,0.249755859375],"min":[0.000244140625,0.187744140625],"type":"VEC2"},{"bufferView":6,"componentType":5126,"count":36,"max":[0.1875,1.3125,0.0625],"min":[0.0625,0.875,-0.0625],"type":"VEC3"},{"bufferView":7,"componentType":5126,"count":36,"max":[1,1,1],"min":[-1,-1,-1],"type":"VEC3"},{"bufferView":8,"componentType":5126,"count":36,"max":[0.374755859375,0.999755859375],"min":[0.250244140625,0.859619140625],"type":"VEC2"},{"bufferView":9,"componentType":5126,"count":36,"max":[-0.0625,1.3125,0.0625],"min":[-0.1875,0.875,-0.0625],"type":"VEC3"},{"bufferView":10,"componentType":5126,"count":36,"max":[1,1,1],"min":[-1,-1,-1],"type":"VEC3"},{"bufferView":11,"componentType":5126,"count":36,"max":[0.874755859375,0.749755859375],"min":[0.750244140625,0.609619140625],"type":"VEC2"},{"bufferView":12,"componentType":5126,"count":36,"max":[0.19062499701976776,0.75,0.0625],"min":[0.06562499701976776,0.0625,-0.0625],"type":"VEC3"},{"bufferView":13,"componentType":5126,"count":36,"max":[1,1,1],"min":[-1,-1,-1],"type":"VEC3"},{"bufferView":14,"componentType":5126,"count":36,"max":[0.249755859375,0.999755859375],"min":[0.125244140625,0.797119140625],"type":"VEC2"},{"bufferView":15,"componentType":5126,"count":36,"max":[-0.05624999850988388,0.75,0.0625],"min":[-0.18125000596046448,0.0625,-0.0625],"type":"VEC3"},{"bufferView":16,"componentType":5126,"count":36,"max":[1,1,1],"min":[-1,-1,-1],"type":"VEC3"},{"bufferView":17,"componentType":5126,"count":36,"max":[0.749755859375,0.749755859375],"min":[0.625244140625,0.547119140625],"type":"VEC2"},{"bufferView":18,"componentType":5126,"count":36,"max":[0.4375,1.5,0.0625],"min":[0.3125,0.75,-0.0625],"type":"VEC3"},{"bufferView":19,"componentType":5126,"count":36,"max":[1,1,1],"min":[-1,-1,-1],"type":"VEC3"},{"bufferView":20,"componentType":5126,"count":36,"max":[0.499755859375,0.999755859375],"min":[0.375244140625,0.781494140625],"type":"VEC2"},{"bufferView":21,"componentType":5126,"count":36,"max":[-0.3125,1.5,0.0625],"min":[-0.4375,0.75,-0.0625],"type":"VEC3"},{"bufferView":22,"componentType":5126,"count":36,"max":[1,1,1],"min":[-1,-1,-1],"type":"VEC3"},{"bufferView":23,"componentType":5126,"count":36,"max":[0.624755859375,0.749755859375],"min":[0.500244140625,0.531494140625],"type":"VEC2"},{"bufferView":24,"componentType":5126,"count":36,"max":[0.375,1.5,0.09375],"min":[-0.375,1.3125,-0.09375],"type":"VEC3"},{"bufferView":25,"componentType":5126,"count":36,"max":[1,1,1],"min":[-1,-1,-1],"type":"VEC3"},{"bufferView":26,"componentType":5126,"count":36,"max":[0.468505859375,0.593505859375],"min":[0.000244140625,0.500244140625],"type":"VEC2"},{"bufferView":27,"componentType":5126,"count":36,"max":[0.0625,1.875,0.0625],"min":[-0.0625,1.4375,-0.0625],"type":"VEC3"},{"bufferView":28,"componentType":5126,"count":36,"max":[1,1,1],"min":[-1,-1,-1],"type":"VEC3"},{"bufferView":29,"componentType":5126,"count":36,"max":[0.124755859375,0.999755859375],"min":[0.000244140625,0.859619140625],"type":"VEC2"},{"bufferView":30,"componentType":5126,"count":3,"max":[1.0399999618530273],"min":[0],"type":"SCALAR"},{"bufferView":31,"componentType":5126,"count":3,"max":[0,0,0,1],"min":[0,0,-0.15212339162826538,0.9883615374565125],"type":"VEC4"},{"bufferView":32,"componentType":5126,"count":1,"max":[0],"min":[0],"type":"SCALAR"},{"bufferView":33,"componentType":5126,"count":1,"max":[-0.375,1.4375,0],"min":[-0.375,1.4375,0],"type":"VEC3"},{"bufferView":34,"componentType":5126,"count":1,"max":[0],"min":[0],"type":"SCALAR"},{"bufferView":35,"componentType":5126,"count":1,"max":[1,1,1],"min":[1,1,1],"type":"VEC3"},{"bufferView":36,"componentType":5126,"count":3,"max":[1.0399999618530273],"min":[0],"type":"SCALAR"},{"bufferView":37,"componentType":5126,"count":3,"max":[0,0,0.15212339162826538,1],"min":[0,0,0,0.9883615374565125],"type":"VEC4"},{"bufferView":38,"componentType":5126,"count":1,"max":[0],"min":[0],"type":"SCALAR"},{"bufferView":39,"componentType":5126,"count":1,"max":[0.375,1.5,0],"min":[0.375,1.5,0],"type":"VEC3"},{"bufferView":40,"componentType":5126,"count":1,"max":[0],"min":[0],"type":"SCALAR"},{"bufferView":41,"componentType":5126,"count":1,"max":[1,1,1],"min":[1,1,1],"type":"VEC3"},{"bufferView":42,"componentType":5126,"count":7,"max":[1.6399999856948853],"min":[0],"type":"SCALAR"},{"bufferView":43,"componentType":5126,"count":7,"max":[0,0,0,1],"min":[0,0,-0.9469301104545593,0.3214394748210907],"type":"VEC4"},{"bufferView":44,"componentType":5126,"count":1,"max":[0],"min":[0],"type":"SCALAR"},{"bufferView":45,"componentType":5126,"count":1,"max":[-0.7071067690849304,0,0,0.7071067690849304],"min":[-0.7071067690849304,0,0,0.7071067690849304],"type":"VEC4"}],"materials":[{"pbrMetallicRoughness":{"metallicFactor":0,"roughnessFactor":1,"baseColorTexture":{"index":0}},"alphaMode":"MASK","alphaCutoff":0.05,"doubleSided":true}],"textures":[{"sampler":0,"source":0}],"samplers":[{"magFilter":9728,"minFilter":9728,"wrapS":33071,"wrapT":33071}],"images":[{"mimeType":"image/png","uri":"data:image/png;base64,"}],"meshes":[{"primitives":[{"mode":4,"attributes":{"POSITION":0,"NORMAL":1,"TEXCOORD_0":2},"material":0}]},{"primitives":[{"mode":4,"attributes":{"POSITION":3,"NORMAL":4,"TEXCOORD_0":5},"material":0}]},{"primitives":[{"mode":4,"attributes":{"POSITION":6,"NORMAL":7,"TEXCOORD_0":8},"material":0}]},{"primitives":[{"mode":4,"attributes":{"POSITION":9,"NORMAL":10,"TEXCOORD_0":11},"material":0}]},{"primitives":[{"mode":4,"attributes":{"POSITION":12,"NORMAL":13,"TEXCOORD_0":14},"material":0}]},{"primitives":[{"mode":4,"attributes":{"POSITION":15,"NORMAL":16,"TEXCOORD_0":17},"material":0}]},{"primitives":[{"mode":4,"attributes":{"POSITION":18,"NORMAL":19,"TEXCOORD_0":20},"material":0}]},{"primitives":[{"mode":4,"attributes":{"POSITION":21,"NORMAL":22,"TEXCOORD_0":23},"material":0}]},{"primitives":[{"mode":4,"attributes":{"POSITION":24,"NORMAL":25,"TEXCOORD_0":26},"material":0}]},{"primitives":[{"mode":4,"attributes":{"POSITION":27,"NORMAL":28,"TEXCOORD_0":29},"material":0}]}],"animations":[{"name":"Idle","samplers":[{"input":30,"output":31,"interpolation":"LINEAR"},{"input":32,"output":33,"interpolation":"LINEAR"},{"input":34,"output":35,"interpolation":"LINEAR"},{"input":36,"output":37,"interpolation":"LINEAR"},{"input":38,"output":39,"interpolation":"LINEAR"},{"input":40,"output":41,"interpolation":"LINEAR"}],"channels":[{"sampler":0,"target":{"node":15,"path":"rotation"}},{"sampler":1,"target":{"node":15,"path":"translation"}},{"sampler":2,"target":{"node":15,"path":"scale"}},{"sampler":3,"target":{"node":13,"path":"rotation"}},{"sampler":4,"target":{"node":13,"path":"translation"}},{"sampler":5,"target":{"node":13,"path":"scale"}}]},{"name":"Waving goodbye","samplers":[{"input":42,"output":43,"interpolation":"LINEAR"}],"channels":[{"sampler":0,"target":{"node":15,"path":"rotation"}}]},{"name":"Hold Item","samplers":[{"input":44,"output":45,"interpolation":"LINEAR"}],"channels":[{"sampler":0,"target":{"node":15,"path":"rotation"}}]}]}