# Blender 4.1.0
# www.blender.org
mtllib deco_1.mtl
o Cube
v -0.800000 1.000000 -1.000000
v -0.800000 -1.000000 -1.000000
v -0.800000 1.000000 1.000000
v -0.800000 -1.000000 1.000000
v -1.000000 1.000000 -1.000000
v -1.000000 -1.000000 -1.000000
v -1.000000 1.000000 1.000000
v -1.000000 -1.000000 1.000000
vn -0.0000 1.0000 -0.0000
vn -0.0000 -0.0000 1.0000
vn -1.0000 -0.0000 -0.0000
vn -0.0000 -1.0000 -0.0000
vn 1.0000 -0.0000 -0.0000
vn -0.0000 -0.0000 -1.0000
vt 0.785714 0.714286
vt 0.714286 0.714286
vt 0.714286 0.000000
vt 0.785714 0.000000
vt 0.785714 -0.000000
vt 0.857143 -0.000000
vt 0.857143 0.714286
vt 0.000000 0.714286
vt 0.000000 0.000000
vt 0.714286 0.000000
vt 0.714286 0.714286
vt 0.928571 0.714286
vt 0.857143 0.714286
vt 0.857143 -0.000000
vt 0.928571 -0.000000
vt 1.000000 0.000000
vt 1.000000 1.000000
vt 0.000000 1.000000
vt -0.000000 0.000000
vt 0.928571 0.714286
vt 0.928572 0.000000
vt 1.000000 0.000000
vt 1.000000 0.714286
s 0
usemtl Material
f 1/1/1 5/2/1 7/3/1 3/4/1
f 4/1/2 3/5/2 7/6/2 8/7/2
f 8/8/3 7/9/3 5/10/3 6/11/3
f 6/12/4 2/13/4 4/14/4 8/15/4
f 6/20/6 5/21/6 1/22/6 2/23/6
usemtl Material.001
f 2/16/5 1/17/5 3/18/5 4/19/5
