# Blender 4.1.0
# www.blender.org
mtllib estante_2.mtl
o Cube
v 1.000000 0.953002 -0.540000
v 1.000000 -0.546998 -0.540000
v 1.000000 0.953002 0.540000
v 1.000000 -0.546998 0.540000
v -1.000000 0.953002 -0.540000
v -1.000000 -0.546998 -0.540000
v -1.000000 0.953002 0.540000
v -1.000000 -0.546998 0.540000
v 0.400000 2.396833 -0.540000
v 0.400000 0.896833 -0.540000
v 0.400000 2.396833 0.540000
v 0.400000 0.896833 0.540000
v -1.600000 2.396833 -0.540000
v -1.600000 0.896833 -0.540000
v -1.600000 2.396833 0.540000
v -1.600000 0.896833 0.540000
v 1.000000 3.833614 -0.540000
v 1.000000 2.333614 -0.540000
v 1.000000 3.833614 0.540000
v 1.000000 2.333614 0.540000
v -1.000000 3.833614 -0.540000
v -1.000000 2.333614 -0.540000
v -1.000000 3.833614 0.540000
v -1.000000 2.333614 0.540000
v 0.940000 0.893002 -0.540000
v 0.940000 -0.486998 -0.540000
v 0.940000 0.893002 0.540000
v 0.940000 -0.486998 0.540000
v -0.940000 0.893002 -0.540000
v -0.940000 -0.486998 -0.540000
v -0.940000 0.893002 0.540000
v -0.940000 -0.486998 0.540000
v 0.340000 2.336833 -0.540000
v 0.340000 0.956833 -0.540000
v 0.340000 2.336833 0.540000
v 0.340000 0.956833 0.540000
v -1.540000 2.336833 -0.540000
v -1.540000 0.956833 -0.540000
v -1.540000 2.336833 0.540000
v -1.540000 0.956833 0.540000
v 0.940000 3.773614 -0.540000
v 0.940000 2.393614 -0.540000
v 0.940000 3.773614 0.540000
v 0.940000 2.393614 0.540000
v -0.940000 3.773614 -0.540000
v -0.940000 2.393614 -0.540000
v -0.940000 3.773614 0.540000
v -0.940000 2.393614 0.540000
v 0.400000 5.278902 -0.540000
v 0.400000 3.778902 -0.540000
v 0.400000 5.278902 0.540000
v 0.400000 3.778902 0.540000
v -1.600000 5.278902 -0.540000
v -1.600000 3.778902 -0.540000
v -1.600000 5.278902 0.540000
v -1.600000 3.778902 0.540000
v 0.340000 5.218902 -0.540000
v 0.340000 3.838902 -0.540000
v 0.340000 5.218902 0.540000
v 0.340000 3.838902 0.540000
v -1.540000 5.218902 -0.540000
v -1.540000 3.838902 -0.540000
v -1.540000 5.218902 0.540000
v -1.540000 3.838902 0.540000
v 1.200000 -0.546998 -0.540000
v 1.200000 -0.546998 0.540000
v -1.600000 -0.546998 -0.540000
v -1.600000 -0.546998 0.540000
v 1.200000 -0.646998 -0.540000
v 1.200000 -0.646998 0.540000
v -1.600000 -0.646998 -0.540000
v -1.600000 -0.646998 0.540000
vn -0.0000 1.0000 -0.0000
vn -1.0000 -0.0000 -0.0000
vn 1.0000 -0.0000 -0.0000
vn -0.0000 -1.0000 -0.0000
vn -0.0000 -0.0000 -1.0000
vn -0.0000 -0.0000 1.0000
vt 0.153846 0.000000
vt 0.153846 0.284900
vt -0.000000 0.284900
vt 0.000000 -0.000000
vt 0.307692 0.783476
vt 0.307692 0.569801
vt 0.461539 0.569801
vt 0.461538 0.783476
vt 0.357143 0.000000
vt 0.357143 0.385714
vt 0.285714 0.385714
vt 0.285714 0.000000
vt 0.769231 0.213675
vt 0.769231 -0.000000
vt 0.923077 0.000000
vt 0.923077 0.213675
vt 0.461538 0.000000
vt 0.461538 0.284900
vt 0.307692 0.284900
vt 0.307692 -0.000000
vt 0.769231 0.427350
vt 0.923077 0.427350
vt 0.153846 0.569801
vt 0.000000 0.569801
vt 0.769231 0.641026
vt 0.923077 0.641026
vt -0.000000 0.783476
vt 0.153846 0.783476
vt 0.461538 0.569801
vt 0.615385 0.267806
vt 0.461539 0.267806
vt 0.461539 0.000000
vt 0.615385 0.000000
vt 0.307692 0.980057
vt 0.153846 0.980057
vt 0.615385 0.535613
vt 0.461539 0.535613
vt 0.461538 0.980057
vt 0.769231 0.267806
vt 0.615385 1.000000
vt 0.461539 1.000000
vt 0.461539 0.803419
vt 0.615385 0.803419
vt 0.769231 0.535613
vt 0.769231 1.000000
vt 0.769231 0.803419
vt 0.923077 0.837607
vt 0.769231 0.837607
vt -0.000000 0.980057
vt -0.450000 0.444445
vt -0.450001 2.977778
vt -0.526000 2.901778
vt -0.526000 0.520445
vt -2.350000 0.444445
vt -2.274000 0.520445
vt -0.450000 0.444444
vt 1.449999 0.444445
vt 1.374000 0.520445
vt -0.374000 0.520444
vt 1.449999 2.977778
vt -0.450000 2.977777
vt -0.374000 2.901778
vt 1.374000 2.901778
vt -2.350000 2.977778
vt -2.274000 2.901778
vt 1.450000 -2.088889
vt 1.450000 0.444444
vt 1.374000 0.368444
vt 1.374000 -2.012889
vt -0.450000 -2.088889
vt -0.374000 -2.012889
vt -2.350000 -2.088889
vt -0.526000 -2.012889
vt -2.274000 -2.012889
vt -2.350000 0.444444
vt -2.274000 0.368444
vt -0.526000 0.368444
vt -0.374000 0.368444
vt 3.350000 -2.088889
vt 3.350000 0.444444
vt 3.274000 0.368444
vt 3.274001 -2.012889
vt 1.450001 -2.088889
vt 1.526000 -2.012889
vt 3.274000 0.520444
vt 1.526000 0.520444
vt 3.350000 2.977777
vt 1.450000 2.977777
vt 1.526000 2.901778
vt 3.274000 2.901778
vt 1.526000 0.368444
vt 0.000000 0.000000
vt 0.360000 0.000000
vt 0.360000 0.033333
vt 0.000000 0.033333
vt 0.285714 0.000000
vt 0.285714 0.385714
vt 0.071429 0.385714
vt 0.071429 0.000000
vt 0.360000 0.966667
vt -0.000000 0.966667
vt 0.360000 1.000000
vt 0.000000 1.000000
vt 0.071429 -0.000000
vt 0.071429 1.000000
vt 0.035714 1.000000
vt 0.035714 -0.000000
vt 0.035714 0.000000
vt 0.035714 1.000000
vt -0.000000 1.000000
vt 0.000000 0.000000
s 0
usemtl Material.005
f 1/1/1 5/2/1 7/3/1 3/4/1
f 8/5/2 7/6/2 5/7/2 6/8/2
f 2/9/1 4/10/1 66/11/1 65/12/1
f 2/13/3 1/14/3 3/15/3 4/16/3
f 9/17/1 13/18/1 15/19/1 11/20/1
f 16/21/2 15/13/2 13/16/2 14/22/2
f 14/2/4 10/23/4 12/24/4 16/3/4
f 10/25/3 9/21/3 11/22/3 12/26/3
f 17/19/1 21/6/1 23/23/1 19/2/1
f 24/27/2 23/24/2 21/23/2 22/28/2
f 22/18/4 18/29/4 20/6/4 24/19/4
f 18/28/3 17/23/3 19/6/3 20/5/3
f 25/30/4 27/31/4 31/32/4 29/33/4
f 32/34/3 30/35/3 29/28/3 31/5/3
f 30/36/1 32/37/1 28/31/1 26/30/1
f 26/38/2 28/34/2 27/5/2 25/8/2
f 33/39/4 35/30/4 39/33/4 37/14/4
f 40/40/3 38/41/3 37/42/3 39/43/3
f 38/44/1 40/36/1 36/30/1 34/39/1
f 34/45/2 36/40/2 35/43/2 33/46/2
f 41/43/4 43/42/4 47/37/4 45/36/4
f 48/47/3 46/48/3 45/25/3 47/26/3
f 46/46/1 48/43/1 44/36/1 42/44/1
f 42/35/2 44/49/2 43/27/2 41/28/2
f 2/50/5 6/51/5 30/52/5 26/53/5
f 1/54/5 2/50/5 26/53/5 25/55/5
f 7/56/6 8/57/6 32/58/6 31/59/6
f 4/60/6 3/61/6 27/62/6 28/63/6
f 6/51/5 5/64/5 29/65/5 30/52/5
f 3/61/6 7/56/6 31/59/6 27/62/6
f 8/57/6 4/60/6 28/63/6 32/58/6
f 5/64/5 1/54/5 25/55/5 29/65/5
f 10/66/5 14/67/5 38/68/5 34/69/5
f 9/70/5 10/66/5 34/69/5 33/71/5
f 15/72/6 16/70/6 40/73/6 39/74/6
f 12/56/6 11/75/6 35/76/6 36/77/6
f 14/67/5 13/56/5 37/78/5 38/68/5
f 11/75/6 15/72/6 39/74/6 35/76/6
f 16/70/6 12/56/6 36/77/6 40/73/6
f 13/56/5 9/70/5 33/71/5 37/78/5
f 18/79/5 22/80/5 46/81/5 42/82/5
f 17/83/5 18/79/5 42/82/5 41/84/5
f 23/67/6 24/80/6 48/85/6 47/86/6
f 20/87/6 19/88/6 43/89/6 44/90/6
f 22/80/5 21/67/5 45/91/5 46/81/5
f 19/88/6 23/67/6 47/86/6 43/89/6
f 24/80/6 20/87/6 44/90/6 48/85/6
f 21/67/5 17/83/5 41/84/5 45/91/5
f 49/17/1 53/18/1 55/19/1 51/20/1
f 56/21/2 55/13/2 53/16/2 54/22/2
f 54/2/4 50/23/4 52/24/4 56/3/4
f 50/25/3 49/21/3 51/22/3 52/26/3
f 57/39/4 59/30/4 63/33/4 61/14/4
f 64/40/3 62/41/3 61/42/3 63/43/3
f 62/44/1 64/36/1 60/30/1 58/39/1
f 58/45/2 60/40/2 59/43/2 57/46/2
f 50/66/5 54/67/5 62/68/5 58/69/5
f 49/70/5 50/66/5 58/69/5 57/71/5
f 55/72/6 56/70/6 64/73/6 63/74/6
f 52/56/6 51/75/6 59/76/6 60/77/6
f 54/67/5 53/56/5 61/78/5 62/68/5
f 51/75/6 55/72/6 63/74/6 59/76/6
f 56/70/6 52/56/6 60/77/6 64/73/6
f 53/56/5 49/70/5 57/71/5 61/78/5
f 68/92/2 67/93/2 71/94/2 72/95/2
f 6/51/6 2/50/6 65/50/6 67/51/6
f 4/60/5 8/57/5 68/57/5 66/60/5
f 8/96/1 6/97/1 67/98/1 68/99/1
f 71/94/4 69/100/4 70/101/4 72/95/4
f 65/102/3 66/103/3 70/101/3 69/100/3
f 66/104/6 68/105/6 72/106/6 70/107/6
f 67/108/5 65/109/5 69/110/5 71/111/5
