# Blender 4.1.0
# www.blender.org
mtllib mesa.mtl
o Cube
v 3.869114 0.139999 -8.174902
v 3.869114 -0.140001 -8.174902
v 3.869114 0.140001 7.825098
v 3.869114 -0.139999 7.825098
v -4.250885 0.139999 -8.174902
v -4.250885 -0.140001 -8.174902
v -4.250885 0.140001 7.825098
v -4.250885 -0.139999 7.825098
v 3.869114 -0.140001 -8.174902
v 3.869114 -0.139999 7.825098
v -4.250885 -0.140001 -8.174902
v -4.250885 -0.139999 7.825098
vn -0.0000 1.0000 -0.0000
vn -0.0000 -0.0000 1.0000
vn -1.0000 -0.0000 -0.0000
vn 1.0000 -0.0000 -0.0000
vn -0.0000 -0.0000 -1.0000
vn -0.0000 -1.0000 -0.0000
vt 1.703578 -0.235770
vt 1.703578 1.235770
vt -1.196008 1.235770
vt -1.196008 -0.235770
vt 0.035003 0.000000
vt 0.511003 0.000000
vt 0.511002 0.507500
vt 0.035001 0.507500
vt -0.917001 0.000000
vt -0.441001 0.000000
vt -0.441003 1.000000
vt -0.917003 1.000000
vt 0.034999 1.000000
vt -0.441001 1.000000
vt -0.440999 0.000000
vt 0.035001 0.000000
vt 0.511004 0.000000
vt 0.987004 0.000000
vt 0.987002 0.507500
vt 0.511002 0.507500
vt -0.405871 -0.799815
vt 0.913441 -0.799815
vt 0.913441 1.799815
vt -0.405871 1.799815
s 0
usemtl Material.001
f 1/1/1 5/2/1 7/3/1 3/4/1
f 4/5/2 3/6/2 7/7/2 8/8/2
f 8/9/3 7/10/3 5/11/3 6/12/3
f 2/13/4 1/14/4 3/15/4 4/16/4
f 6/17/5 5/18/5 1/19/5 2/20/5
f 11/21/6 9/22/6 10/23/6 12/24/6
o Cube.001
v 0.871734 -0.129039 -6.600214
v 0.653734 -0.129039 -6.600214
v 1.602533 -4.270240 -5.800212
v 0.653734 -0.270240 -5.800214
v -2.436000 -0.129039 -6.600214
v -2.436000 -4.270240 -6.600214
v -2.436000 -0.129039 -5.800213
v -2.436000 -4.270240 -5.800212
v 2.089733 -4.270240 -6.600213
v -1.000000 -0.270241 -6.600214
v -1.948800 -4.270240 -6.600214
v 2.089733 -0.129039 -6.600213
v -1.000000 -0.129039 -5.800213
v -1.218000 -0.129039 -5.800213
v -1.948800 -4.270240 -5.800212
v -1.000000 -0.270240 -5.800213
v 2.089733 -4.270240 -5.800212
v -1.218000 -0.129039 -6.600214
v -1.000000 -0.129039 -6.600214
v 2.089733 -0.129039 -5.800213
v 1.602533 -4.270240 -6.600214
v 0.653734 -0.270241 -6.600214
v 0.871733 -0.129039 -5.800213
v 0.653734 -0.129039 -5.800213
vn -0.0000 1.0000 -0.0000
vn -0.0000 -0.0000 1.0000
vn -1.0000 -0.0000 -0.0000
vn -0.0000 -1.0000 -0.0000
vn -0.9730 -0.2308 -0.0000
vn -0.0000 -0.0000 -1.0000
vn 0.9730 -0.2308 -0.0000
vn 1.0000 -0.0000 -0.0000
vt 0.812500 0.500000
vt 0.875000 0.500000
vt 0.875000 0.750000
vt 0.812500 0.750000
vt 0.375000 0.937500
vt 0.625000 0.937500
vt 0.625000 1.000000
vt 0.375000 1.000000
vt 0.375000 0.000000
vt 0.625000 0.000000
vt 0.625000 0.250000
vt 0.375000 0.250000
vt 0.625000 0.312500
vt 0.375000 0.312500
vt 0.125000 0.500000
vt 0.187500 0.500000
vt 0.187500 0.750000
vt 0.125000 0.750000
vt 0.250000 0.500000
vt 0.250000 0.750000
vt 0.625000 0.375000
vt 0.375000 0.375000
vt 0.750000 0.500000
vt 0.625000 0.875000
vt 0.375000 0.875000
vt 0.750000 0.750000
s 0
usemtl Material.002
f 30/25/7 17/26/7 19/27/7 26/28/7
f 27/29/8 26/30/8 19/31/8 20/32/8
f 20/33/9 19/34/9 17/35/9 18/36/9
f 29/36/8 32/35/8 35/37/8 15/38/8
f 29/39/10 15/40/10 33/41/10 21/42/10
f 15/40/11 16/43/11 34/44/11 33/41/11
f 18/36/12 17/35/12 30/37/12 23/38/12
f 23/38/12 30/37/12 31/45/12 22/46/12
f 33/29/12 13/30/12 24/31/12 21/32/12
f 18/39/10 23/40/10 27/41/10 20/42/10
f 23/40/13 22/43/13 28/44/13 27/41/13
f 21/33/14 24/34/14 32/35/14 29/36/14
f 16/43/9 36/47/9 14/48/9 34/44/9
f 22/43/14 31/47/14 25/48/14 28/44/14
f 28/49/8 25/48/8 26/30/8 27/29/8
f 15/38/8 35/37/8 36/45/8 16/46/8
f 35/25/7 32/26/7 24/27/7 13/28/7
f 31/47/7 30/25/7 26/28/7 25/50/7
f 34/49/12 14/48/12 13/30/12 33/29/12
f 36/47/7 35/25/7 13/28/7 14/50/7
o Cube.002
v 0.871734 -0.129039 5.399786
v 0.653734 -0.129039 5.399786
v 1.602533 -4.270239 6.199788
v 0.653734 -0.270240 6.199786
v -2.436000 -0.129039 5.399786
v -2.436000 -4.270239 5.399786
v -2.436000 -0.129039 6.199787
v -2.436000 -4.270239 6.199788
v 2.089733 -4.270239 5.399787
v -1.000000 -0.270240 5.399786
v -1.948800 -4.270239 5.399786
v 2.089733 -0.129039 5.399787
v -1.000000 -0.129039 6.199787
v -1.218000 -0.129039 6.199787
v -1.948800 -4.270239 6.199788
v -1.000000 -0.270240 6.199787
v 2.089733 -4.270239 6.199788
v -1.218000 -0.129039 5.399786
v -1.000000 -0.129039 5.399786
v 2.089733 -0.129039 6.199787
v 1.602533 -4.270239 5.399786
v 0.653734 -0.270240 5.399786
v 0.871733 -0.129039 6.199787
v 0.653734 -0.129039 6.199787
vn -0.0000 1.0000 -0.0000
vn -0.0000 -0.0000 1.0000
vn -1.0000 -0.0000 -0.0000
vn -0.0000 -1.0000 -0.0000
vn -0.9730 -0.2308 -0.0000
vn -0.0000 -0.0000 -1.0000
vn 0.9730 -0.2308 -0.0000
vn 1.0000 -0.0000 -0.0000
vt 0.812500 0.500000
vt 0.875000 0.500000
vt 0.875000 0.750000
vt 0.812500 0.750000
vt 0.375000 0.937500
vt 0.625000 0.937500
vt 0.625000 1.000000
vt 0.375000 1.000000
vt 0.375000 0.000000
vt 0.625000 0.000000
vt 0.625000 0.250000
vt 0.375000 0.250000
vt 0.625000 0.312500
vt 0.375000 0.312500
vt 0.125000 0.500000
vt 0.187500 0.500000
vt 0.187500 0.750000
vt 0.125000 0.750000
vt 0.250000 0.500000
vt 0.250000 0.750000
vt 0.625000 0.375000
vt 0.375000 0.375000
vt 0.750000 0.500000
vt 0.625000 0.875000
vt 0.375000 0.875000
vt 0.750000 0.750000
s 0
usemtl Material.003
f 54/51/15 41/52/15 43/53/15 50/54/15
f 51/55/16 50/56/16 43/57/16 44/58/16
f 44/59/17 43/60/17 41/61/17 42/62/17
f 53/62/16 56/61/16 59/63/16 39/64/16
f 53/65/18 39/66/18 57/67/18 45/68/18
f 39/66/19 40/69/19 58/70/19 57/67/19
f 42/62/20 41/61/20 54/63/20 47/64/20
f 47/64/20 54/63/20 55/71/20 46/72/20
f 57/55/20 37/56/20 48/57/20 45/58/20
f 42/65/18 47/66/18 51/67/18 44/68/18
f 47/66/21 46/69/21 52/70/21 51/67/21
f 45/59/22 48/60/22 56/61/22 53/62/22
f 40/69/17 60/73/17 38/74/17 58/70/17
f 46/69/22 55/73/22 49/74/22 52/70/22
f 52/75/16 49/74/16 50/56/16 51/55/16
f 39/64/16 59/63/16 60/71/16 40/72/16
f 59/51/15 56/52/15 48/53/15 37/54/15
f 55/73/15 54/51/15 50/54/15 49/76/15
f 58/75/20 38/74/20 37/56/20 57/55/20
f 60/73/15 59/51/15 37/54/15 38/76/15
